# xmcd
#
# Track frame offsets:
#	150
#	11395
#	23355
#	36628
#	50647
#	66095
#	77267
#	89488
#	100669
#	114971
#
# Disc length: 1683 seconds
#
# Revision: 1
# Processed by: cddbd v1.4PL0 Copyright (c) Steve Scherf et al.
# Submitted via: audiograbber 1.81.03
#
DISCID=6c06910a
DTITLE=Lew DeWitt - On My Own
DYEAR=1985
DGENRE=Country
TTITLE0=You'll Never Know
TTITLE1=Flowers On The Wall
TTITLE2=I Read Your Letter Again
TTITLE3=Welcome To The Holiday Inn
TTITLE4=Wanda Glen
TTITLE5=I Love Virginia
TTITLE6=Show Me Someone Making Plans To Leave
TTITLE7=Whole Lotta Money
TTITLE8=She Must Have Lovin' Eyes
TTITLE9=So This Is Love
EXTD=
EXTT0=
EXTT1=
EXTT2=
EXTT3=
EXTT4=
EXTT5=
EXTT6=
EXTT7=
EXTT8=
EXTT9=
PLAYORDER=
